<svg xmlns="http://www.w3.org/2000/svg" viewBox="0 0 2160 3839.99"><defs><style>.a{fill:#4d4d4d;fill-rule:evenodd;}</style></defs><path class="a" d="M163.88,166.1a65.57,65.57,0,0,0-65.53-65.64A98.37,98.37,0,0,1,.06,2H32.83A65.56,65.56,0,0,0,98.35,67.64a98.37,98.37,0,0,1,98.3,98.46,65.56,65.56,0,0,0,65.53,65.64,98.37,98.37,0,0,1,98.29,98.46A65.58,65.58,0,0,0,426,395.85v32.82a98.37,98.37,0,0,1-98.29-98.47,65.57,65.57,0,0,0-65.53-65.64A98.37,98.37,0,0,1,163.88,166.1ZM581,134.1l139,139.26-23.16,23.2-139-139.25Z" transform="translate(-0.06 -2)"/><path class="a" d="M883.88,166.1a65.57,65.57,0,0,0-65.53-65.64A98.37,98.37,0,0,1,720.06,2h32.77a65.56,65.56,0,0,0,65.52,65.64,98.37,98.37,0,0,1,98.3,98.46,65.56,65.56,0,0,0,65.53,65.64,98.37,98.37,0,0,1,98.29,98.46A65.58,65.58,0,0,0,1146,395.85v32.82a98.37,98.37,0,0,1-98.29-98.47,65.57,65.57,0,0,0-65.53-65.64A98.37,98.37,0,0,1,883.88,166.1Zm417.16-32,139,139.26-23.16,23.2-139-139.25Z" transform="translate(-0.06 -2)"/><path class="a" d="M1603.88,166.1a65.57,65.57,0,0,0-65.53-65.64A98.37,98.37,0,0,1,1440.06,2h32.77a65.56,65.56,0,0,0,65.52,65.64,98.37,98.37,0,0,1,98.3,98.46,65.56,65.56,0,0,0,65.53,65.64,98.37,98.37,0,0,1,98.29,98.46A65.58,65.58,0,0,0,1866,395.85v32.82a98.37,98.37,0,0,1-98.29-98.47,65.57,65.57,0,0,0-65.53-65.64A98.37,98.37,0,0,1,1603.88,166.1Zm417.16-32,139,139.26-23.16,23.2-139-139.25Z" transform="translate(-0.06 -2)"/><path class="a" d="M163.88,592.77a65.56,65.56,0,0,0-65.53-65.64A98.37,98.37,0,0,1,.06,428.67H32.83a65.57,65.57,0,0,0,65.52,65.64,98.37,98.37,0,0,1,98.3,98.46,65.57,65.57,0,0,0,65.53,65.64,98.37,98.37,0,0,1,98.29,98.46A65.57,65.57,0,0,0,426,822.51v32.82a98.37,98.37,0,0,1-98.29-98.46,65.57,65.57,0,0,0-65.53-65.64A98.38,98.38,0,0,1,163.88,592.77Zm417.16-32L720.06,700l-23.16,23.2L557.88,584Z" transform="translate(-0.06 -2)"/><path class="a" d="M883.88,592.77a65.56,65.56,0,0,0-65.53-65.64,98.37,98.37,0,0,1-98.29-98.46h32.77a65.57,65.57,0,0,0,65.52,65.64,98.37,98.37,0,0,1,98.3,98.46,65.57,65.57,0,0,0,65.53,65.64,98.37,98.37,0,0,1,98.29,98.46A65.57,65.57,0,0,0,1146,822.51v32.82a98.37,98.37,0,0,1-98.29-98.46,65.57,65.57,0,0,0-65.53-65.64A98.38,98.38,0,0,1,883.88,592.77Zm417.16-32,139,139.26-23.16,23.2L1277.88,584Z" transform="translate(-0.06 -2)"/><path class="a" d="M1603.88,592.77a65.56,65.56,0,0,0-65.53-65.64,98.37,98.37,0,0,1-98.29-98.46h32.77a65.57,65.57,0,0,0,65.52,65.64,98.37,98.37,0,0,1,98.3,98.46,65.57,65.57,0,0,0,65.53,65.64,98.37,98.37,0,0,1,98.29,98.46A65.57,65.57,0,0,0,1866,822.51v32.82a98.37,98.37,0,0,1-98.29-98.46,65.57,65.57,0,0,0-65.53-65.64A98.38,98.38,0,0,1,1603.88,592.77Zm417.16-32,139,139.26-23.16,23.2L1997.88,584Z" transform="translate(-0.06 -2)"/><path class="a" d="M163.88,1019.43a65.57,65.57,0,0,0-65.53-65.64A98.36,98.36,0,0,1,.06,855.33H32.83A65.56,65.56,0,0,0,98.35,921a98.37,98.37,0,0,1,98.3,98.46,65.57,65.57,0,0,0,65.53,65.65,98.36,98.36,0,0,1,98.29,98.46A65.57,65.57,0,0,0,426,1249.18V1282a98.37,98.37,0,0,1-98.29-98.46,65.57,65.57,0,0,0-65.53-65.64A98.38,98.38,0,0,1,163.88,1019.43Zm417.16-32,139,139.26L696.9,1149.9l-139-139.26Z" transform="translate(-0.06 -2)"/><path class="a" d="M883.88,1019.43a65.57,65.57,0,0,0-65.53-65.64,98.36,98.36,0,0,1-98.29-98.46h32.77A65.56,65.56,0,0,0,818.35,921a98.37,98.37,0,0,1,98.3,98.46,65.57,65.57,0,0,0,65.53,65.65,98.36,98.36,0,0,1,98.29,98.46,65.57,65.57,0,0,0,65.53,65.64V1282a98.37,98.37,0,0,1-98.29-98.46,65.57,65.57,0,0,0-65.53-65.64A98.38,98.38,0,0,1,883.88,1019.43Zm417.16-32,139,139.26-23.16,23.21-139-139.26Z" transform="translate(-0.06 -2)"/><path class="a" d="M1603.88,1019.43a65.57,65.57,0,0,0-65.53-65.64,98.36,98.36,0,0,1-98.29-98.46h32.77A65.56,65.56,0,0,0,1538.35,921a98.37,98.37,0,0,1,98.3,98.46,65.57,65.57,0,0,0,65.53,65.65,98.36,98.36,0,0,1,98.29,98.46,65.57,65.57,0,0,0,65.53,65.64V1282a98.37,98.37,0,0,1-98.29-98.46,65.57,65.57,0,0,0-65.53-65.64A98.38,98.38,0,0,1,1603.88,1019.43Zm417.16-32,139,139.26-23.16,23.21-139-139.26Z" transform="translate(-0.06 -2)"/><path class="a" d="M163.88,1446.1a65.56,65.56,0,0,0-65.53-65.64A98.37,98.37,0,0,1,.06,1282H32.83a65.57,65.57,0,0,0,65.52,65.64,98.37,98.37,0,0,1,98.3,98.46,65.56,65.56,0,0,0,65.53,65.64,98.37,98.37,0,0,1,98.29,98.46A65.57,65.57,0,0,0,426,1675.84v32.82a98.36,98.36,0,0,1-98.29-98.46,65.57,65.57,0,0,0-65.53-65.64A98.38,98.38,0,0,1,163.88,1446.1Zm417.16-32,139,139.26-23.16,23.2-139-139.26Z" transform="translate(-0.06 -2)"/><path class="a" d="M883.88,1446.1a65.56,65.56,0,0,0-65.53-65.64A98.37,98.37,0,0,1,720.06,1282h32.77a65.57,65.57,0,0,0,65.52,65.64,98.37,98.37,0,0,1,98.3,98.46,65.56,65.56,0,0,0,65.53,65.64,98.37,98.37,0,0,1,98.29,98.46,65.57,65.57,0,0,0,65.53,65.64v32.82a98.36,98.36,0,0,1-98.29-98.46,65.57,65.57,0,0,0-65.53-65.64A98.38,98.38,0,0,1,883.88,1446.1Zm417.16-32,139,139.26-23.16,23.2-139-139.26Z" transform="translate(-0.06 -2)"/><path class="a" d="M1603.88,1446.1a65.56,65.56,0,0,0-65.53-65.64,98.37,98.37,0,0,1-98.29-98.46h32.77a65.57,65.57,0,0,0,65.52,65.64,98.37,98.37,0,0,1,98.3,98.46,65.56,65.56,0,0,0,65.53,65.64,98.37,98.37,0,0,1,98.29,98.46,65.57,65.57,0,0,0,65.53,65.64v32.82a98.36,98.36,0,0,1-98.29-98.46,65.57,65.57,0,0,0-65.53-65.64A98.38,98.38,0,0,1,1603.88,1446.1Zm417.16-32,139,139.26-23.16,23.2-139-139.26Z" transform="translate(-0.06 -2)"/><path class="a" d="M163.88,1872.77a65.56,65.56,0,0,0-65.53-65.64A98.37,98.37,0,0,1,.06,1708.66H32.83a65.56,65.56,0,0,0,65.52,65.64,98.37,98.37,0,0,1,98.3,98.47,65.57,65.57,0,0,0,65.53,65.64,98.37,98.37,0,0,1,98.29,98.46A65.57,65.57,0,0,0,426,2102.51v32.82a98.37,98.37,0,0,1-98.29-98.46,65.57,65.57,0,0,0-65.53-65.64A98.38,98.38,0,0,1,163.88,1872.77Zm417.16-32,139,139.25-23.16,23.21L557.88,1864Z" transform="translate(-0.06 -2)"/><path class="a" d="M883.88,1872.77a65.56,65.56,0,0,0-65.53-65.64,98.37,98.37,0,0,1-98.29-98.47h32.77a65.56,65.56,0,0,0,65.52,65.64,98.37,98.37,0,0,1,98.3,98.47,65.57,65.57,0,0,0,65.53,65.64,98.37,98.37,0,0,1,98.29,98.46,65.57,65.57,0,0,0,65.53,65.64v32.82a98.37,98.37,0,0,1-98.29-98.46,65.57,65.57,0,0,0-65.53-65.64A98.38,98.38,0,0,1,883.88,1872.77Zm417.16-32,139,139.25-23.16,23.21-139-139.26Z" transform="translate(-0.06 -2)"/><path class="a" d="M1603.88,1872.77a65.56,65.56,0,0,0-65.53-65.64,98.37,98.37,0,0,1-98.29-98.47h32.77a65.56,65.56,0,0,0,65.52,65.64,98.37,98.37,0,0,1,98.3,98.47,65.57,65.57,0,0,0,65.53,65.64,98.37,98.37,0,0,1,98.29,98.46,65.57,65.57,0,0,0,65.53,65.64v32.82a98.37,98.37,0,0,1-98.29-98.46,65.57,65.57,0,0,0-65.53-65.64A98.38,98.38,0,0,1,1603.88,1872.77Zm417.16-32,139,139.25-23.16,23.21-139-139.26Z" transform="translate(-0.06 -2)"/><path class="a" d="M163.88,2299.43a65.57,65.57,0,0,0-65.53-65.64A98.37,98.37,0,0,1,.06,2135.33H32.83A65.56,65.56,0,0,0,98.35,2201a98.37,98.37,0,0,1,98.3,98.46,65.56,65.56,0,0,0,65.53,65.64,98.37,98.37,0,0,1,98.29,98.46A65.58,65.58,0,0,0,426,2529.18V2562a98.37,98.37,0,0,1-98.29-98.47,65.57,65.57,0,0,0-65.53-65.64A98.37,98.37,0,0,1,163.88,2299.43Zm417.16-32,139,139.26-23.16,23.2-139-139.25Z" transform="translate(-0.06 -2)"/><path class="a" d="M883.88,2299.43a65.57,65.57,0,0,0-65.53-65.64,98.37,98.37,0,0,1-98.29-98.46h32.77A65.56,65.56,0,0,0,818.35,2201a98.37,98.37,0,0,1,98.3,98.46,65.56,65.56,0,0,0,65.53,65.64,98.37,98.37,0,0,1,98.29,98.46,65.58,65.58,0,0,0,65.53,65.65V2562a98.37,98.37,0,0,1-98.29-98.47,65.57,65.57,0,0,0-65.53-65.64A98.37,98.37,0,0,1,883.88,2299.43Zm417.16-32,139,139.26-23.16,23.2-139-139.25Z" transform="translate(-0.06 -2)"/><path class="a" d="M1603.88,2299.43a65.57,65.57,0,0,0-65.53-65.64,98.37,98.37,0,0,1-98.29-98.46h32.77a65.56,65.56,0,0,0,65.52,65.64,98.37,98.37,0,0,1,98.3,98.46,65.56,65.56,0,0,0,65.53,65.64,98.37,98.37,0,0,1,98.29,98.46,65.58,65.58,0,0,0,65.53,65.65V2562a98.37,98.37,0,0,1-98.29-98.47,65.57,65.57,0,0,0-65.53-65.64A98.37,98.37,0,0,1,1603.88,2299.43Zm417.16-32,139,139.26-23.16,23.2-139-139.25Z" transform="translate(-0.06 -2)"/><path class="a" d="M163.88,2726.1a65.56,65.56,0,0,0-65.53-65.64A98.37,98.37,0,0,1,.06,2562H32.83a65.57,65.57,0,0,0,65.52,65.64,98.37,98.37,0,0,1,98.3,98.46,65.57,65.57,0,0,0,65.53,65.64,98.37,98.37,0,0,1,98.29,98.46A65.57,65.57,0,0,0,426,2955.84v32.82a98.37,98.37,0,0,1-98.29-98.46,65.57,65.57,0,0,0-65.53-65.64A98.38,98.38,0,0,1,163.88,2726.1Zm417.16-32,139,139.26-23.16,23.2-139-139.26Z" transform="translate(-0.06 -2)"/><path class="a" d="M883.88,2726.1a65.56,65.56,0,0,0-65.53-65.64A98.37,98.37,0,0,1,720.06,2562h32.77a65.57,65.57,0,0,0,65.52,65.64,98.37,98.37,0,0,1,98.3,98.46,65.57,65.57,0,0,0,65.53,65.64,98.37,98.37,0,0,1,98.29,98.46,65.57,65.57,0,0,0,65.53,65.64v32.82a98.37,98.37,0,0,1-98.29-98.46,65.57,65.57,0,0,0-65.53-65.64A98.38,98.38,0,0,1,883.88,2726.1Zm417.16-32,139,139.26-23.16,23.2-139-139.26Z" transform="translate(-0.06 -2)"/><path class="a" d="M1603.88,2726.1a65.56,65.56,0,0,0-65.53-65.64,98.37,98.37,0,0,1-98.29-98.46h32.77a65.57,65.57,0,0,0,65.52,65.64,98.37,98.37,0,0,1,98.3,98.46,65.57,65.57,0,0,0,65.53,65.64,98.37,98.37,0,0,1,98.29,98.46,65.57,65.57,0,0,0,65.53,65.64v32.82a98.37,98.37,0,0,1-98.29-98.46,65.57,65.57,0,0,0-65.53-65.64A98.38,98.38,0,0,1,1603.88,2726.1Zm417.16-32,139,139.26-23.16,23.2-139-139.26Z" transform="translate(-0.06 -2)"/><path class="a" d="M163.88,3152.76a65.57,65.57,0,0,0-65.53-65.64A98.36,98.36,0,0,1,.06,2988.66H32.83a65.56,65.56,0,0,0,65.52,65.64,98.37,98.37,0,0,1,98.3,98.46,65.57,65.57,0,0,0,65.53,65.65,98.36,98.36,0,0,1,98.29,98.46A65.57,65.57,0,0,0,426,3382.51v32.82a98.37,98.37,0,0,1-98.29-98.46,65.57,65.57,0,0,0-65.53-65.64A98.38,98.38,0,0,1,163.88,3152.76Zm417.16-32,139,139.26-23.16,23.21L557.88,3144Z" transform="translate(-0.06 -2)"/><path class="a" d="M883.88,3152.76a65.57,65.57,0,0,0-65.53-65.64,98.36,98.36,0,0,1-98.29-98.46h32.77a65.56,65.56,0,0,0,65.52,65.64,98.37,98.37,0,0,1,98.3,98.46,65.57,65.57,0,0,0,65.53,65.65,98.36,98.36,0,0,1,98.29,98.46,65.57,65.57,0,0,0,65.53,65.64v32.82a98.37,98.37,0,0,1-98.29-98.46,65.57,65.57,0,0,0-65.53-65.64A98.38,98.38,0,0,1,883.88,3152.76Zm417.16-32,139,139.26-23.16,23.21-139-139.26Z" transform="translate(-0.06 -2)"/><path class="a" d="M1603.88,3152.76a65.57,65.57,0,0,0-65.53-65.64,98.36,98.36,0,0,1-98.29-98.46h32.77a65.56,65.56,0,0,0,65.52,65.64,98.37,98.37,0,0,1,98.3,98.46,65.57,65.57,0,0,0,65.53,65.65,98.36,98.36,0,0,1,98.29,98.46,65.57,65.57,0,0,0,65.53,65.64v32.82a98.37,98.37,0,0,1-98.29-98.46,65.57,65.57,0,0,0-65.53-65.64A98.38,98.38,0,0,1,1603.88,3152.76Zm417.16-32,139,139.26-23.16,23.21-139-139.26Z" transform="translate(-0.06 -2)"/><path class="a" d="M163.88,3579.43a65.56,65.56,0,0,0-65.53-65.64A98.37,98.37,0,0,1,.06,3415.33H32.83A65.57,65.57,0,0,0,98.35,3481a98.37,98.37,0,0,1,98.3,98.46,65.56,65.56,0,0,0,65.53,65.64,98.37,98.37,0,0,1,98.29,98.46A65.57,65.57,0,0,0,426,3809.17V3842a98.36,98.36,0,0,1-98.29-98.46,65.57,65.57,0,0,0-65.53-65.64A98.38,98.38,0,0,1,163.88,3579.43Zm417.16-32,139,139.26-23.16,23.2-139-139.26Z" transform="translate(-0.06 -2)"/><path class="a" d="M883.88,3579.43a65.56,65.56,0,0,0-65.53-65.64,98.37,98.37,0,0,1-98.29-98.46h32.77A65.57,65.57,0,0,0,818.35,3481a98.37,98.37,0,0,1,98.3,98.46,65.56,65.56,0,0,0,65.53,65.64,98.37,98.37,0,0,1,98.29,98.46,65.57,65.57,0,0,0,65.53,65.64V3842a98.36,98.36,0,0,1-98.29-98.46,65.57,65.57,0,0,0-65.53-65.64A98.38,98.38,0,0,1,883.88,3579.43Zm417.16-32,139,139.26-23.16,23.2-139-139.26Z" transform="translate(-0.06 -2)"/><path class="a" d="M1603.88,3579.43a65.56,65.56,0,0,0-65.53-65.64,98.37,98.37,0,0,1-98.29-98.46h32.77a65.57,65.57,0,0,0,65.52,65.64,98.37,98.37,0,0,1,98.3,98.46,65.56,65.56,0,0,0,65.53,65.64,98.37,98.37,0,0,1,98.29,98.46,65.57,65.57,0,0,0,65.53,65.64V3842a98.36,98.36,0,0,1-98.29-98.46,65.57,65.57,0,0,0-65.53-65.64A98.38,98.38,0,0,1,1603.88,3579.43Zm417.16-32,139,139.26-23.16,23.2-139-139.26Z" transform="translate(-0.06 -2)"/><path class="a" d="M426,0" transform="translate(-0.06 -2)"/></svg>